<?xml version="1.0" encoding="utf-8"?>
<!-- Generator: Adobe Illustrator 21.1.0, SVG Export Plug-In . SVG Version: 6.00 Build 0)  -->
<svg version="1.1" id="Layer_1" xmlns="http://www.w3.org/2000/svg" xmlns:xlink="http://www.w3.org/1999/xlink" x="0px" y="0px"
	 viewBox="0 0 34.5 34.8" style="enable-background:new 0 0 34.5 34.8;" xml:space="preserve">
<style type="text/css">
	<!-- .st0{stroke:#000000;stroke-width:1.5;stroke-linejoin:round;}
	.st1{fill:none;stroke:#FFFFFF;stroke-width:1.5;stroke-linecap:round;} -->
	.st0{fill:blue;stroke:#FFFFFF;stroke-width:1.5;stroke-linejoin:round;}
	.st1{fill:#000000;stroke:#FFFFFF;stroke-width:1.5;stroke-linecap:round;}
</style>
<g>
	<g>
		<path class="st0" d="M3.8,31.2c3.4-1,10.1,0.4,13.5-2c3.4,2.4,10.1,1,13.5,2c0,0,1.7,0.5,3,2c-0.7,1-1.7,1-3,0.5
			c-3.4-1-10.1,0.5-13.5-1c-3.4,1.5-10.1,0-13.5,1c-1.4,0.5-2.3,0.5-3-0.5C2.1,31.3,3.8,31.2,3.8,31.2z"/>
		<path class="st0" d="M9.8,27.2c2.5,2.5,12.5,2.5,15,0c0.5-1.5,0-2,0-2c0-2.5-2.5-4-2.5-4c5.5-1.5,6-11.5-5-15.5
			c-11,4-10.5,14-5,15.5c0,0-2.5,1.5-2.5,4C9.8,25.2,9.2,25.8,9.8,27.2z"/>
		<path class="st0" d="M19.8,3.2c0,1.4-1.1,2.5-2.5,2.5s-2.5-1.1-2.5-2.5s1.1-2.5,2.5-2.5S19.8,1.9,19.8,3.2z"/>
	</g>
	<path class="st1" d="M12.2,21.2h10 M9.8,25.2h15 M17.2,10.8v5 M14.8,13.2h5"/>
</g>
</svg>
