<?xml version="1.0" encoding="utf-8"?>
<!-- Generator: Adobe Illustrator 21.1.0, SVG Export Plug-In . SVG Version: 6.00 Build 0)  -->
<svg version="1.1" id="Layer_1" xmlns="http://www.w3.org/2000/svg" xmlns:xlink="http://www.w3.org/1999/xlink" x="0px" y="0px"
	 viewBox="0 0 34.8 35.1" style="enable-background:new 0 0 34.8 35.1;" xml:space="preserve">
<style type="text/css">
	.st0{fill:none;stroke:#000000;stroke-width:1.5;stroke-linecap:round;}
	.st1{stroke:#000000;stroke-width:1.5;}
	.st2{stroke:#000000;stroke-width:1.5;stroke-linecap:round;stroke-linejoin:round;}
	.st3{fill:none;stroke:#FFFFFF;stroke-width:1.5;stroke-linecap:round;stroke-linejoin:round;}
</style>
<g>
	<path id="path6570" class="st0" d="M17.4,6.4V0.8"/>
	<path class="st1" d="M17.4,19.8c0,0,4.5-7.5,3-10.5c0,0-1-2.5-3-2.5s-3,2.5-3,2.5C12.9,12.2,17.4,19.8,17.4,19.8"/>
	<path class="st2" d="M6.4,31.8c5.5,3.5,15.5,3.5,21,0v-7c0,0,9-4.5,6-10.5c-4-6.5-13.5-3.5-16,4v3.5v-3.5c-3.5-7.5-13-10.5-16-4
		c-3,6,5,10,5,10V31.8z"/>
	<path class="st0" d="M14.9,2.8h5"/>
	<path class="st3" d="M26.9,24.2c0,0,8.5-4,6-9.6c-3.9-5.9-13-1.9-15.5,4.6l0,2.1l0-2.1C14.9,12.8,4.8,8.8,1.9,14.6
		c-2.5,5.6,4.9,9,4.9,9"/>
	<path class="st3" d="M6.4,24.8c5.5-3,15.5-3,21,0 M6.4,28.2c5.5-3,15.5-3,21,0 M6.4,31.8c5.5-3,15.5-3,21,0"/>
</g>
</svg>
