<?xml version="1.0" encoding="utf-8"?>
<!-- Generator: Adobe Illustrator 21.1.0, SVG Export Plug-In . SVG Version: 6.00 Build 0)  -->
<svg version="1.1" id="Layer_1" xmlns="http://www.w3.org/2000/svg" xmlns:xlink="http://www.w3.org/1999/xlink" x="0px" y="0px"
	 viewBox="0 0 38.5 35.9" style="enable-background:new 0 0 38.5 35.9;" xml:space="preserve">
<style type="text/css">
	.st0{stroke:#000000;stroke-width:1.5;stroke-linejoin:round;}
	.st1{fill:none;stroke:#000000;stroke-width:1.5;stroke-linejoin:round;}
	.st2{fill:none;stroke:#FFFFFF;stroke-width:1.5;stroke-linecap:round;stroke-linejoin:round;}
</style>
<g>
	<g>
		<circle cx="2.8" cy="6.8" r="2.8"/>
		<circle cx="10.8" cy="3.8" r="2.8"/>
		<circle cx="19.2" cy="2.8" r="2.8"/>
		<circle cx="27.8" cy="3.8" r="2.8"/>
		<circle cx="35.8" cy="6.8" r="2.8"/>
	</g>
	<path class="st0" d="M5.8,20.8c8.5-1.5,21-1.5,27,0l2.5-12.5l-7.5,11.5L27.5,5.6l-5.2,13.6l-3-14.5l-3,14.5L11.1,5.6l-0.3,14.1
		L3.2,8.2L5.8,20.8z"/>
	<path class="st0" d="M5.8,20.8c0,2,1.5,2,2.5,4c1,1.5,1,1,0.5,3.5c-1.5,1-1.5,2.5-1.5,2.5c-1.5,1.5,0.5,2.5,0.5,2.5
		c6.5,1,16.5,1,23,0c0,0,1.5-1,0-2.5c0,0,0.5-1.5-1-2.5c-0.5-2.5-0.5-2,0.5-3.5c1-2,2.5-2,2.5-4C24.2,19.2,14.2,19.2,5.8,20.8z"/>
	<path class="st1" d="M7.8,33.2c7.4,2.6,15.6,2.6,23,0"/>
	<path class="st2" d="M7.8,23.8c7.4-2.6,15.6-2.6,23,0"/>
	<path class="st2" d="M9.2,26.2h20"/>
	<path class="st2" d="M8.2,29.2c7.1,2.4,14.9,2.4,22,0"/>
	<path class="st2" d="M7.2,32.2c7.7,2.8,16.3,2.8,24,0"/>
</g>
</svg>
