<?xml version="1.0" encoding="utf-8"?>
<!-- Generator: Adobe Illustrator 21.1.0, SVG Export Plug-In . SVG Version: 6.00 Build 0)  -->
<svg version="1.1" id="Layer_1" xmlns="http://www.w3.org/2000/svg" xmlns:xlink="http://www.w3.org/1999/xlink" x="0px" y="0px"
	 viewBox="0 0 38.5 35.2" style="enable-background:new 0 0 38.5 35.2;" xml:space="preserve">
<style type="text/css">
	.st0{fill:#FFFFFF;stroke:#000000;stroke-width:1.5;stroke-linecap:round;stroke-linejoin:round;}
	.st1{fill:#FFFFFF;stroke:#000000;stroke-width:1.5;stroke-linejoin:round;}
	.st2{fill:none;stroke:#000000;stroke-width:1.5;stroke-linecap:round;stroke-linejoin:round;}
</style>
<g>
	<path class="st0" d="M4.8,7.2c0,1.1-0.9,2-2,2s-2-0.9-2-2s0.9-2,2-2S4.8,6.1,4.8,7.2z"/>
	<path class="st0" d="M21.2,2.8c0,1.1-0.9,2-2,2s-2-0.9-2-2s0.9-2,2-2S21.2,1.6,21.2,2.8z"/>
	<path class="st0" d="M37.8,7.2c0,1.1-0.9,2-2,2s-2-0.9-2-2s0.9-2,2-2S37.8,6.1,37.8,7.2z"/>
	<path class="st0" d="M12.8,3.8c0,1.1-0.9,2-2,2s-2-0.9-2-2s0.9-2,2-2S12.8,2.6,12.8,3.8z"/>
	<path class="st0" d="M29.8,4.2c0,1.1-0.9,2-2,2s-2-0.9-2-2s0.9-2,2-2S29.8,3.1,29.8,4.2z"/>
	<path class="st1" d="M5.8,21.2c8.5-1.5,21-1.5,27,0l2-12l-7,11v-14l-5.5,13.5l-3-15l-3,15l-5.5-14v14.5l-7-11L5.8,21.2z"/>
	<path class="st1" d="M5.8,21.2c0,2,1.5,2,2.5,4c1,1.5,1,1,0.5,3.5c-1.5,1-1.5,2.5-1.5,2.5c-1.5,1.5,0.5,2.5,0.5,2.5
		c6.5,1,16.5,1,23,0c0,0,1.5-1,0-2.5c0,0,0.5-1.5-1-2.5c-0.5-2.5-0.5-2,0.5-3.5c1-2,2.5-2,2.5-4C24.2,19.8,14.2,19.8,5.8,21.2z"/>
	<path class="st2" d="M8.2,25.2c3.5-1,18.5-1,22,0"/>
	<path class="st2" d="M8.8,28.8c6-1,15-1,21,0"/>
</g>
</svg>
