<?xml version="1.0" encoding="utf-8"?>
<!-- Generator: Adobe Illustrator 21.1.0, SVG Export Plug-In . SVG Version: 6.00 Build 0)  -->
<svg version="1.1" id="Layer_1" xmlns="http://www.w3.org/2000/svg" xmlns:xlink="http://www.w3.org/1999/xlink" x="0px" y="0px"
	 viewBox="0 0 28.5 31.5" style="enable-background:new 0 0 28.5 31.5;" xml:space="preserve">
<style type="text/css">
	.st0{stroke:#000000;stroke-width:1.5;stroke-linejoin:round;}
	.st1{stroke:#000000;stroke-width:1.5;}
	.st2{fill:none;stroke:#FFFFFF;stroke-linecap:round;}
</style>
<g>
	<path class="st0" d="M0.8,30.8h27v-3h-27V30.8z"/>
	<path class="st0" d="M4.2,23.8l1.5-2.5h17l1.5,2.5H4.2z"/>
	<path class="st0" d="M3.8,27.8v-4h21v4H3.8z"/>
	<path class="st1" d="M5.8,21.2v-13h17v13H5.8z"/>
	<path class="st0" d="M5.8,8.2l-3-2.5h23l-3,2.5H5.8z"/>
	<path class="st0" d="M2.8,5.8v-5h4v2h5v-2h5v2h5v-2h4v5H2.8z"/>
	<path class="st2" d="M3.8,27.2h21l0,0"/>
	<path class="st2" d="M4.8,23.2h19"/>
	<path class="st2" d="M5.8,21.2h17"/>
	<path class="st2" d="M5.8,8.2h17"/>
	<path class="st2" d="M2.8,5.8h23"/>
</g>
</svg>
